<?xml version="1.0" encoding="utf-8"?>
<!-- Generator: Adobe Illustrator 17.0.0, SVG Export Plug-In . SVG Version: 6.00 Build 0)  -->
<!DOCTYPE svg PUBLIC "-//W3C//DTD SVG 1.1//EN" "http://www.w3.org/Graphics/SVG/1.1/DTD/svg11.dtd">
<svg version="1.1" id="Google" xmlns="http://www.w3.org/2000/svg" xmlns:xlink="http://www.w3.org/1999/xlink" x="0px" y="0px"
	 width="512px" height="512px" viewBox="0 0 512 512" enable-background="new 0 0 512 512" xml:space="preserve">
<path id="Blue" fill="#4285F4" d="M434.383,218.611c-7.482,0.234-185.067,0.008-185.067,0.008c0,12.539-0.073,75.757-0.078,76.586
	c18.316,0.078,104.947,0.083,106.729,0.107c-4.86,26.149-18.484,46.279-38.036,59.611c10.607,8.387,55.38,43.971,61.669,48.994
	c0.217-0.205,0.439-0.403,0.655-0.61C417.482,367.649,449.465,306.037,434.383,218.611z"/>
<path id="Green_2_" fill="#0F9D58" d="M317.931,354.922c-18.428,12.432-41.177,18.923-67.68,18.923
	c-50.908,0-94.137-34.106-109.712-80.23c-4.83,3.713-59.258,45.842-64.929,50.296c32.138,63.73,97.947,107.562,172.771,107.562
	c50.78,0,96.924-14.696,131.227-47.551C373.335,398.913,328.462,363.249,317.931,354.922z"/>
<path id="Yellow_2_" fill="#F4B400" d="M75.772,167.752C62.381,194.246,54.777,224.269,54.777,256
	c0,31.62,7.528,61.484,20.831,87.911c9.609-7.353,61.733-47.798,64.929-50.296c-4.006-11.862-6.187-24.521-6.187-37.615
	c0-13.015,2.171-25.6,6.164-37.396C138.956,217.342,81.532,172.203,75.772,167.752z"/>
<path id="Red_2_" fill="#DB4437" d="M140.515,218.604c-0.155,0.459-0.289,0.927-0.439,1.388
	c15.235-46.942,59.237-81.72,110.76-81.72c28.493,0,54.363,9.353,74.302,29.038c0,0,54.321-54.707,56.403-56.802
	c-27.591-29.171-78.904-49.981-133.16-49.981c-74.746,0-140.426,43.61-172.601,107.231
	C81.568,172.231,138.957,217.342,140.515,218.604z"/>
</svg>
